<?xml version="1.0" encoding="utf-8"?>
<!-- Generator: Adobe Adobe Illustrator 24.2.0, SVG Export Plug-In . SVG Version: 6.00 Build 0)  -->
<svg version="1.1" id="Layer_1" xmlns="http://www.w3.org/2000/svg" xmlns:xlink="http://www.w3.org/1999/xlink" x="0px" y="0px"
	 width="640px" height="480px" viewBox="0 0 640 480" style="enable-background:new 0 0 640 480;" xml:space="preserve">
<style type="text/css">
	.st0{fill:#F08335;}
	.st1{fill:#616870;}
	.st2{fill:#FDB34C;}
	.st3{fill:#7E888A;}
	.st4{fill:#122228;}
</style>
<g>
	<g>
		<g>
			<path d="M514.17,298.48c-0.63-1.84-1.26-3.68-1.89-5.52c0.44,1.3,0.88,2.6,1.33,3.9c0.5,1.46,1,2.92,1.49,4.38
				C514.79,300.32,514.48,299.4,514.17,298.48z M537.77,250.92c0.03-0.16,0.06-0.32,0.09-0.48c0.08-0.5,0.17-0.99,0.27-1.49
				c-0.1,0.49-0.2,0.98-0.28,1.47C537.82,250.58,537.79,250.75,537.77,250.92z"/>
			<path class="st0" d="M513.61,296.86c0.5,1.46,1,2.92,1.49,4.38c-0.31-0.92-0.62-1.84-0.93-2.76
				C513.98,297.94,513.79,297.4,513.61,296.86z"/>
			<path d="M283.95,427.68l-0.09-0.42c-0.14-0.62-0.25-1.06-0.3-1.25c0,0-0.17-0.7-0.48-2c-0.07-0.27-0.13-0.54-0.2-0.81
				c-0.11-0.46-0.24-0.96-0.37-1.52c-8.15-33.71-20.03-82.5-25.07-103.02c-0.14-0.55-0.27-1.08-0.39-1.58
				c-0.12-0.46-0.23-0.91-0.32-1.34c-0.1-0.36-0.18-0.71-0.26-1.04c-0.04-0.17-0.08-0.33-0.12-0.49c-0.12-0.48-0.23-0.93-0.33-1.35
				c-0.23-0.92-0.42-1.69-0.57-2.29c-0.03-0.1-0.05-0.2-0.07-0.29c-0.07-0.27-0.13-0.5-0.17-0.69c-0.03-0.1-0.05-0.19-0.07-0.26
				c-0.03-0.11-0.05-0.19-0.06-0.24c-0.14-0.54-0.32-1.05-0.52-1.53c-0.5-1.2-1.19-2.2-2.03-3.01c-1.5-1.46-3.51-2.3-5.91-2.62
				c-3.01-0.4-6.04-0.57-9.07-0.74c-9.2-0.52-18.4-0.95-27.6-1.48c-18.96-1.08-37.92-2.2-56.88-3.33
				c-9.2-0.55-18.39-1.18-27.58-1.72c-13.8-0.81-27.6-1.65-41.41-2.31c-1.98-0.1-3.51,0.4-4.52,1.37c-0.12,0.11-0.23,0.23-0.33,0.35
				c-0.21,0.25-0.38,0.52-0.53,0.81c-0.43,0.85-0.62,1.9-0.55,3.09c0.01,0.13,0.02,0.26,0.04,0.39c0.01,0.15,0.03,0.3,0.05,0.45
				c0,0.01,0,0.01,0.01,0.02v0.01c0.02,0.15,0.05,0.3,0.08,0.46c1.26,6.21,2.56,12.41,3.98,18.58c4.9,21.39,9.86,42.76,14.8,64.13
				c2.86,12.34,5.71,24.68,8.61,37.01c1.68,7.17,5.36,10.74,11.98,11.49c3.91,0.43,7.84,0.56,11.76,0.85
				c9.75,0.73,19.49,1.46,29.23,2.21c17.02,1.31,34.04,2.65,51.06,3.93c7.62,0.57,15.24,0.99,22.86,1.54
				c14.56,1.07,29.09,2.64,43.68,3.24c6.32,0.26,8.07-3.99,8.27-8.22C284.67,431.65,284.28,429.25,283.95,427.68z"/>
			<path d="M497.23,220.02c-8.06,22.48-5.58,44.99,0.94,67.36c12.41,32.19,24.32,73.57-8.76,96.6c-1.01,0.7-2.07,1.39-3.17,2.06
				c0.13-1.52,0.24-3.04,0.3-4.55c2.52-52.32-30.81-98.38-70.86-129c-1.6-1.3-1.98-1.84-0.24-3.39c8.23-7.32,15.2-15.73,20.72-25.32
				c0.71-1.23,1.13-1.42,2.44-0.56c4.32,1.78,10.03,8.65,14.49,4.43c6.18-6.58-4.36-11.19-9.21-14.19c-1.28-0.77-1.96-1.36-1.2-3.13
				c2.61-6.01,4.56-12.3,5.41-18.8c0.5-3.76,1.92-4.18,5.11-3.19c7.02,2.49,9.84-8.58,3.2-10.71c-2.23-1.53-6.82-0.6-6.53-4.18
				c-0.03-16.18-3.44-31.63-10.21-46.31c2.17-30.22,8.46-60.81,1.46-91.55C436.44,3.94,420.8,1.33,397.1,19.21
				c-15.41,10.96-29.04,23.98-42.04,37.69c-1.73,1.83-3.2,2.1-5.54,1.51c-25.92-6.07-53.12-6.44-79.23-1.14
				c-1.83,0.4-2.91-0.19-3.97-1.62c-13.53-17.68-28.09-35.8-48.28-46.1c-43.44-19.14-31.06,83.26-30.26,105.01
				c-27,54.99,7.1,49.21-39.84,49.59c-3.77,0.36-5.98,2.57-5.92,5.98c0.91,9.32,18.26,3.69,25.07,5.06
				c9.15-1.03,6.67,3.88,7.51,10.64c0.86,2.74-0.21,3.4-2.78,3.79c-7.64,1.17-15.2,2.8-22.55,5.22c-3.89,1.29-5.49,4.3-4.39,7.54
				c2.74,8.2,21.92-2.12,29.09-1.82c2.14-0.39,3.04-0.02,3.6,2.31c3.46,14.36,11.09,26.37,21.29,36.72
				c12.92,13.11,28.58,21.67,46.04,26.94c1.58,0.48,2.34,0.99,2.37,1.9c0.02,0.52-0.19,1.16-0.61,2.01
				c-1.4,2.84-2.67,5.74-3.89,8.67c-0.51,1.23-1.02,2.47-1.52,3.7c-3.03,7.41-2.98,7.31-10.97,6.66
				c-48.8-3.07-97.64-5.86-146.47-8.07c-11.71-0.34-19.56,9.62-16.31,22.2c6.71,29.25,13.51,58.48,20.3,87.71
				c5.72,18.3,4.07,48.62,29.16,50.31c49.44,4.05,98.62,7.39,148.13,11.3c22.36,4.08,44.48-0.43,66.77-3.12
				c14.92-1.86,29.92-3.16,44.71-6.04c1.43-0.28,2.12-0.02,2.92,1.28c2.38,3.84,5.88,5.6,10.46,5.56
				c17.77-0.13,35.55-0.29,53.32-0.11c10.17,0.1,18.36-3.64,24.8-11.39c21.93-3.54,39.59-8.06,54.33-17.62
				c3.41-2.21,6.67-4.69,9.78-7.49c8.6-7.73,16.14-17.9,22.97-31.56c29.26-59.52-13.27-92.34-4.66-133.89
				c4.34-14.71,19.45-20.89,26.16-33.98C594.7,165.26,515.89,161.07,497.23,220.02z M276.29,442.28
				c-14.59-0.6-29.12-2.17-43.68-3.24c-7.62-0.55-15.24-0.97-22.86-1.54c-17.02-1.28-34.04-2.62-51.06-3.93
				c-9.74-0.75-19.48-1.48-29.23-2.21c-3.92-0.29-7.85-0.42-11.76-0.85c-6.62-0.75-10.3-4.32-11.98-11.49
				c-2.9-12.33-5.75-24.67-8.61-37.01c-4.94-21.37-9.9-42.74-14.8-64.13c-1.42-6.17-2.72-12.37-3.98-18.58
				c-0.03-0.16-0.06-0.31-0.08-0.46v-0.01c-0.01-0.01-0.01-0.01-0.01-0.02c-0.02-0.15-0.04-0.3-0.05-0.45
				c-0.02-0.13-0.03-0.26-0.04-0.39c-0.07-1.19,0.12-2.24,0.55-3.09c0.15-0.29,0.32-0.56,0.53-0.81c0.1-0.12,0.21-0.24,0.33-0.35
				c1.01-0.97,2.54-1.47,4.52-1.37c13.81,0.66,27.61,1.5,41.41,2.31c9.19,0.54,18.38,1.17,27.58,1.72
				c18.96,1.13,37.92,2.25,56.88,3.33c9.2,0.53,18.4,0.96,27.6,1.48c3.03,0.17,6.06,0.34,9.07,0.74c2.4,0.32,4.41,1.16,5.91,2.62
				c0.84,0.81,1.53,1.81,2.03,3.01c0.2,0.48,0.38,0.99,0.52,1.53c0.01,0.05,0.03,0.13,0.06,0.24c0.02,0.07,0.04,0.16,0.07,0.26
				c0.04,0.19,0.1,0.42,0.17,0.69c0.02,0.09,0.05,0.19,0.07,0.29c0.15,0.6,0.34,1.37,0.57,2.29c0.1,0.42,0.21,0.87,0.33,1.35
				c0.04,0.16,0.08,0.32,0.12,0.49c0.08,0.33,0.16,0.68,0.26,1.04c0.1,0.43,0.21,0.87,0.32,1.34c0.12,0.5,0.25,1.03,0.39,1.58
				c5.04,20.52,16.92,69.31,25.07,103.02c0.13,0.56,0.26,1.06,0.37,1.52c0.07,0.27,0.13,0.54,0.2,0.81c0.31,1.3,0.48,2,0.48,2
				c0.05,0.19,0.16,0.63,0.3,1.25l0.09,0.42c0.33,1.57,0.72,3.97,0.61,6.38C284.36,438.29,282.61,442.54,276.29,442.28z
				 M561.99,215.8c-4.59,5.15-10.3,9.11-14.75,14.44c-0.37,0.45-0.74,0.91-1.09,1.37c-0.05,0.06-0.1,0.11-0.14,0.17
				c-0.2,0.26-0.39,0.51-0.57,0.77c-0.18,0.24-0.35,0.49-0.52,0.73c-0.01,0.01-0.02,0.02-0.03,0.04c-0.06,0.08-0.11,0.16-0.17,0.24
				c-0.1,0.15-0.19,0.3-0.29,0.44c0,0.01-0.01,0.01-0.02,0.02c-0.01,0.01-0.02,0.02-0.02,0.03c-0.37,0.53-0.71,1.07-1.03,1.61
				c-0.16,0.26-0.32,0.52-0.47,0.79c-0.15,0.26-0.3,0.52-0.45,0.79c-0.15,0.26-0.29,0.53-0.43,0.8c-0.84,1.6-1.56,3.22-2.16,4.88
				c-0.2,0.55-0.39,1.1-0.57,1.66c-0.46,1.44-0.85,2.9-1.15,4.37c-0.1,0.5-0.19,0.99-0.27,1.49c-0.03,0.16-0.06,0.32-0.09,0.48
				c-0.03,0.16-0.05,0.32-0.08,0.48c-0.08,0.57-0.16,1.16-0.23,1.74c-0.06,0.56-0.11,1.12-0.16,1.68c-0.01,0.12-0.02,0.25-0.03,0.38
				c-0.08,1.08-0.12,2.16-0.13,3.26c-0.01,0.62-0.01,1.25,0,1.88c0.01,0.43,0.02,0.85,0.05,1.28c0.01,0.43,0.03,0.86,0.06,1.29
				c0.08,1.29,0.2,2.59,0.36,3.9c0.1,0.87,0.22,1.75,0.36,2.63c0.1,0.64,0.21,1.28,0.33,1.91c0.08,0.47,0.17,0.94,0.27,1.41
				c0.1,0.51,0.21,1.02,0.31,1.53c0.22,1.01,0.46,2.02,0.71,3.03c0.13,0.5,0.26,1.01,0.39,1.51c0.17,0.66,0.35,1.33,0.54,1.99
				c0.38,1.33,0.77,2.65,1.18,3.97c1.81,5.85,3.91,11.63,5.74,17.48c0.23,0.73,0.45,1.45,0.67,2.18c0.3,1,0.59,1.99,0.86,2.99
				c0.11,0.4,0.22,0.79,0.32,1.19c0.19,0.69,0.37,1.39,0.55,2.09c0.35,1.41,0.69,2.82,0.99,4.24c0.15,0.69,0.29,1.38,0.43,2.07
				c0.14,0.7,0.28,1.41,0.4,2.11c0.13,0.66,0.24,1.33,0.35,1.99c0.07,0.47,0.15,0.94,0.22,1.41c0,0.02,0.01,0.04,0.01,0.06
				c0.08,0.52,0.15,1.03,0.22,1.55c0.07,0.45,0.13,0.91,0.18,1.36c0.08,0.59,0.15,1.19,0.21,1.79c0.03,0.19,0.05,0.39,0.06,0.59
				c0.07,0.63,0.13,1.25,0.18,1.88c0.07,0.71,0.12,1.42,0.16,2.14c0.03,0.51,0.06,1.02,0.09,1.54c0.08,1.67,0.12,3.35,0.12,5.03
				c0,0.58-0.01,1.16-0.02,1.73c-0.01,0.49-0.02,0.97-0.04,1.46c-0.01,0.43-0.03,0.85-0.05,1.28V343c-0.03,0.61-0.06,1.21-0.11,1.81
				c-0.04,0.73-0.1,1.45-0.17,2.17c-0.07,0.75-0.15,1.5-0.24,2.25c-0.02,0.24-0.05,0.47-0.08,0.7c-0.1,0.82-0.21,1.64-0.34,2.46
				c-0.13,0.89-0.28,1.78-0.44,2.66c0,0.02-0.01,0.04-0.01,0.06c-0.15,0.87-0.32,1.73-0.51,2.58c-0.18,0.87-0.38,1.74-0.59,2.6
				c-0.21,0.86-0.43,1.71-0.67,2.56c-0.01,0.04-0.02,0.09-0.03,0.13c-0.21,0.74-0.42,1.49-0.65,2.22c-0.04,0.14-0.08,0.27-0.12,0.4
				c-0.21,0.66-0.42,1.32-0.64,1.97c-0.04,0.12-0.08,0.24-0.12,0.36c-0.28,0.8-0.56,1.59-0.86,2.38c-0.05,0.14-0.11,0.28-0.16,0.42
				c-0.2,0.52-0.4,1.05-0.62,1.57c-0.43,1.07-0.88,2.13-1.35,3.18c-0.22,0.49-0.44,0.98-0.68,1.46c-0.24,0.51-0.48,1.02-0.73,1.52
				c-0.26,0.51-0.51,1.01-0.77,1.51c-0.29,0.55-0.58,1.1-0.89,1.65c-0.71,1.31-1.46,2.6-2.25,3.88c-1.86,3.04-3.93,6-6.19,8.88
				c-3.86,4.92-8.05,9.3-12.58,13.11c-10.33,8.72-22.45,14.47-36.58,16.82c-2.32,0.39-4.67,0.57-7.02,0.81
				c-0.29,0.03-0.61-0.1-1.14-0.21c4.13-7.93,6.57-16.33,8.21-24.97c0.2-1.07,0.72-1.48,1.63-1.85c4.4-1.8,8.34-4.04,11.87-6.68
				c9.38-6.96,15.85-16.67,20.27-28.25c0.72-1.88,1.34-3.77,1.86-5.66c0.14-0.51,0.27-1.01,0.39-1.52c0.11-0.42,0.21-0.83,0.3-1.25
				c0.34-1.5,0.61-3,0.84-4.5c0.11-0.75,0.2-1.51,0.29-2.26c0.08-0.65,0.14-1.3,0.2-1.96c0-0.03,0-0.06,0.01-0.09
				c0.04-0.62,0.09-1.24,0.12-1.86c0.04-0.66,0.07-1.31,0.08-1.96c0.02-0.65,0.03-1.29,0.03-1.93c0-1.66-0.05-3.31-0.16-4.96
				c-0.03-0.41-0.06-0.81-0.09-1.22c-0.02-0.32-0.05-0.64-0.08-0.96c-0.04-0.5-0.09-1-0.15-1.5c-0.04-0.41-0.09-0.82-0.14-1.23
				c-0.01-0.07-0.02-0.14-0.03-0.21c-0.06-0.56-0.14-1.12-0.22-1.68c-0.03-0.22-0.06-0.45-0.1-0.67c-0.1-0.68-0.2-1.36-0.32-2.04
				c-0.09-0.55-0.19-1.1-0.29-1.65c-0.08-0.44-0.17-0.89-0.26-1.34c-0.1-0.53-0.21-1.07-0.33-1.6c-0.1-0.48-0.2-0.96-0.31-1.43
				c-0.12-0.56-0.25-1.11-0.38-1.66c-0.12-0.5-0.24-1.01-0.37-1.51c-0.19-0.76-0.38-1.53-0.59-2.29c-0.2-0.77-0.41-1.53-0.62-2.3
				c-0.52-1.87-1.09-3.73-1.68-5.58c-0.25-0.78-0.52-1.56-0.77-2.34c-0.3-0.92-0.61-1.84-0.92-2.76c-0.49-1.46-0.99-2.92-1.49-4.38
				c-0.45-1.3-0.89-2.6-1.33-3.9c-0.56-1.64-1.11-3.27-1.64-4.92c-0.27-0.85-0.55-1.7-0.8-2.55c-0.28-0.86-0.54-1.72-0.79-2.57
				c-0.14-0.48-0.27-0.96-0.41-1.44c-0.16-0.56-0.31-1.12-0.46-1.68c-0.15-0.56-0.3-1.12-0.44-1.68c-0.15-0.59-0.29-1.17-0.43-1.76
				c-0.06-0.27-0.13-0.54-0.19-0.81c0-0.01,0-0.02-0.01-0.03c-0.12-0.52-0.24-1.04-0.35-1.56c-0.12-0.53-0.24-1.07-0.35-1.6
				c-0.11-0.53-0.22-1.06-0.33-1.59c-0.42-2.12-0.79-4.24-1.1-6.36c-0.07-0.53-0.15-1.06-0.22-1.59c-0.12-0.96-0.24-1.92-0.34-2.87
				c-0.01-0.18-0.03-0.35-0.05-0.52c-0.1-0.99-0.18-1.97-0.25-2.95c-0.1-1.54-0.17-3.08-0.21-4.62c0.01-0.04,0.01-0.09,0-0.13
				c-0.05-2.86,0.04-5.71,0.28-8.56c0.08-0.97,0.18-1.93,0.3-2.9c0.35-2.9,0.87-5.79,1.6-8.66c0.12-0.48,0.24-0.97,0.37-1.45
				c0-0.01,0.01-0.02,0.01-0.03c0.11-0.45,0.23-0.89,0.37-1.33c0.31-1.09,0.65-2.17,1.02-3.25c0.21-0.58,0.42-1.17,0.63-1.75
				c0.03-0.06,0.05-0.13,0.08-0.19c0.19-0.52,0.39-1.03,0.6-1.54c0.03-0.09,0.07-0.19,0.11-0.29c0.24-0.59,0.5-1.19,0.76-1.78
				c0.06-0.13,0.12-0.28,0.19-0.43c0.32-0.71,0.64-1.41,0.98-2.1c0.18-0.38,0.36-0.75,0.55-1.13c0.64-1.28,1.31-2.52,2.01-3.74
				c0.19-0.33,0.38-0.66,0.58-0.99c0.74-1.24,1.52-2.44,2.33-3.61c0.39-0.56,0.78-1.1,1.19-1.64c0.32-0.44,0.66-0.87,0.99-1.29
				c0.34-0.43,0.68-0.84,1.02-1.25c0.05-0.05,0.1-0.11,0.14-0.16c0.36-0.43,0.73-0.85,1.12-1.27c0.04-0.05,0.09-0.1,0.13-0.15
				c0.4-0.43,0.79-0.84,1.2-1.26c0.42-0.43,0.85-0.86,1.29-1.27c0.36-0.34,0.73-0.68,1.1-1c0.53-0.48,1.07-0.94,1.63-1.39
				c0.45-0.37,0.91-0.73,1.38-1.07c0.05-0.05,0.11-0.09,0.17-0.13c0.41-0.31,0.83-0.61,1.25-0.89c0.06-0.05,0.11-0.09,0.17-0.12
				c0.44-0.3,0.88-0.6,1.33-0.88c0.11-0.07,0.22-0.14,0.33-0.2c0.41-0.26,0.83-0.51,1.25-0.75c0.11-0.07,0.22-0.14,0.33-0.19
				c0.34-0.2,0.68-0.39,1.02-0.56c0.2-0.12,0.41-0.22,0.62-0.33c0.09-0.05,0.19-0.1,0.29-0.14c0.41-0.22,0.84-0.43,1.27-0.63
				c0.47-0.22,0.94-0.43,1.43-0.64c0.19-0.09,0.39-0.17,0.59-0.25c0.51-0.21,1.03-0.41,1.55-0.61c7.93-2.96,16.08-3.36,23.45,1.97
				c3,2.16,5.03,5.13,5.16,9.38C568.37,207.33,565.6,211.74,561.99,215.8z"/>
			<path d="M561.99,215.8c-4.59,5.15-10.3,9.11-14.75,14.44c-9.63,11.55-11.49,24.79-9.27,39.2c1.87,12.14,6.66,23.37,10.14,35.01
				c4.15,13.89,6.29,28.09,4.96,42.53c-1.62,17.61-8.01,33.49-18.94,47.4c-3.86,4.92-8.05,9.3-12.58,13.11
				c-10.33,8.72-22.45,14.47-36.58,16.82c-2.32,0.39-4.67,0.57-7.02,0.81c-0.29,0.03-0.61-0.1-1.14-0.21
				c4.13-7.93,6.57-16.33,8.21-24.97c0.2-1.07,0.72-1.48,1.63-1.85c4.4-1.8,8.34-4.04,11.87-6.68c9.38-6.96,15.85-16.67,20.27-28.25
				c6.53-17.09,4.45-34.19-0.32-51.24c-3.19-11.39-7.83-22.31-10.73-33.8c-4.93-19.6-6.07-39.11,2.3-58.12
				c6.04-13.69,15.09-24.72,29.43-30.07c7.93-2.96,16.08-3.36,23.45,1.97c3,2.16,5.03,5.13,5.16,9.38
				C568.37,207.33,565.6,211.74,561.99,215.8z"/>
			<path class="st1" d="M265.08,453.07c0.02-0.14,0.22-0.19,0.5-0.14C265.52,453.07,265.39,453.11,265.08,453.07z"/>
			<path class="st2" d="M469.52,414.84c-11.11,32.81-31.1,22.25-58.41,24.23c-6.04,1.04-6.08-6.08-4.28-10.39
				c1.77-3.61-3.1-6.11-5.47-3.43c-6.48,4.77,1.06,14.81-7.31,13.94c-5.9,0.32-7.45,1.54-6.84-7c3.68-28,23.54-16.13,25.01-23.37
				c1.04-6.7-7.79-6.8-12.29-5.74c-10.49,1.86-15.62,10.04-20,18.68c-1.8-8.02-6.81-12.27-15.04-13.16
				c17.74-9.1,35.85-18.74,45.65-37.09c6.83-9.76-0.7-19.19-7.01-10.99c-6.56,16.8-20.16,26.07-35.19,33.79
				c-6.67,3.52-13.29,7-19.26,11.69c-8.4,5.94-13.12-7.28-9.3-13.61c3.16-13.54-16.58-2.86-6.61,16.78
				c-12.47,2.82-17.75-7.51-13.75-16.94c1.2-2.39,1.39-4.76-1.32-6.09c-8.28-1.87-8.97,12.51-6.89,21.16
				c-18.71-5.38-4.19-34.82,7.74-41.24c11.93-8.49,27.43-10.54,37.79-21.51c3.4-3.5,8.42-10.84,2.73-14.38
				c-2.25-1.58-4.85-1.1-6.33,1.04c-7.15,10.33-18.26,14.46-28.93,19.45c-20.33,8.66-36.81,29.83-31.43,52.87
				c-3.43-2.08-4.05-5.41-4.81-8.49c-6.16-24.92-12.22-49.86-18.3-74.8c-2.41-10.64-4.3-22.79-14.42-27.68
				c-1.49-0.73-3.16-1.29-5.04-1.67c2.68-6.28,5.37-12.4,7.9-18.58c0.72-1.76,1.54-1.56,3.09-1.15c5.84,0.69,25.1,7.72,31.51,3.94
				c1.14-0.66,1.88-1.66,2.06-3.11c0.5-3.37-1.68-5.96-6.06-6.67c-39.77-6.61-87.68-20.97-99.73-64.63
				c-2.07-6.33,11.87-1.22,10.6-9.03c-0.4-8.44-14.02-0.08-13.62-7.24c-0.41-7.36-1.41-9.57,7.16-8.5c2.55-0.38,5.17-0.94,5.55-3.96
				c-0.64-10.09-15.82-0.73-11.95-14.24c1.97-14.58,6.35-28.32,13.31-41.27c2.06-3.83-0.25-7.95-0.41-12.26
				c-2.72-25.37-4.11-50.81,2.47-75.56c2.86-10.28,5.65-11.4,14.58-5.92c11.88,7.29,21.27,17.37,30.07,28.01
				c5.48,4.66,8.93,15.24,15.48,18.47c1.66,0.83,3.53,1.18,5.68,0.83c5.32-1.15,10.66-2.02,16.02-2.65
				c3.42-0.41,6.84-0.71,10.27-0.93c7.25-0.44,14.52-0.47,21.82-0.14c2.83,0.13,5.66,0.31,8.5,0.54c1.47,0.12,2.94,0.26,4.4,0.43
				c7.01,0.74,13.92,1.94,20.75,3.68c0.66,0.16,1.31,0.33,1.96,0.51c3.42,0.92,6.06-0.2,8.48-2.69
				c16.76-16.8,33.48-34.68,54.59-46.02c12.52-7.95,12.89,9.57,14.92,17.77c4.86,27.73,2.98,56.16-2.8,83.59
				c4.96,15.64,12.52,30.92,11.64,48.15c-13.12-1.77-25.9-1.12-38.5,2.27c-9.22,2.07-7.31,10.64,1.78,9.68
				c10.09-0.7,20.16-1.28,30.28-0.16c5.98,0.66,6.23,0.62,4.9,6.36c-1.17,5.04-2.53,10.03-4.33,14.9c-0.58,1.59-0.9,2.18-2.74,1.35
				c-9.33-4.2-19.04-7.16-29.17-8.63c-11.99-2.46-11.15,8.23-0.43,9.2c3.1,1.28,30.72,7.32,25.69,11.51
				c-12.67,20.28-30.6,33.58-53.04,40.97c-3.1,1.13-8.54,2.36-7.21,6.73c3.39,7.78,14.47,0.91,20.27-0.4
				c5.23-0.63,14.42-8.85,18.07-7.28c4.28,2.95,8.49,6.12,12.59,9.49c6.01,4.93,11.78,10.29,17.21,16.01
				c6.54,6.89,12.57,14.3,17.91,22.13c4.73,6.94,8.92,14.2,12.43,21.71C476.72,355.01,480.55,385.1,469.52,414.84z"/>
			<path class="st1" d="M284.56,434.06c-0.2,4.23-1.95,8.48-8.27,8.22c-14.59-0.6-29.12-2.17-43.68-3.24
				c-7.62-0.55-15.24-0.97-22.86-1.54c-17.02-1.28-34.04-2.62-51.06-3.93c-9.74-0.75-19.48-1.48-29.23-2.21
				c-3.92-0.29-7.85-0.42-11.76-0.85c-6.62-0.75-10.3-4.32-11.98-11.49c-2.9-12.33-5.75-24.67-8.61-37.01
				c-4.94-21.37-9.9-42.74-14.8-64.13c-1.42-6.17-2.72-12.37-3.98-18.58c-0.03-0.16-0.06-0.31-0.08-0.46v-0.01
				c-0.03-0.16-0.05-0.31-0.06-0.47c-0.02-0.13-0.03-0.26-0.04-0.39c-0.07-1.19,0.12-2.24,0.55-3.09c0.15-0.29,0.33-0.56,0.53-0.81
				c0.1-0.12,0.21-0.24,0.33-0.35c1.01-0.97,2.54-1.47,4.52-1.37c13.81,0.66,27.61,1.5,41.41,2.31c9.19,0.54,18.38,1.17,27.58,1.72
				c18.96,1.13,37.92,2.25,56.88,3.33c9.2,0.53,18.4,0.96,27.6,1.48c3.03,0.17,6.06,0.34,9.07,0.74c2.4,0.32,4.41,1.16,5.91,2.62
				c0.84,0.81,1.53,1.81,2.03,3.01c0.2,0.48,0.38,0.99,0.52,1.53c0.01,0.05,0.03,0.13,0.06,0.24c0.02,0.07,0.04,0.16,0.07,0.26
				c0.04,0.19,0.1,0.42,0.17,0.69c0.02,0.09,0.04,0.19,0.07,0.29c0.15,0.6,0.34,1.37,0.57,2.29c0.1,0.42,0.21,0.87,0.33,1.35
				c0.04,0.16,0.08,0.32,0.12,0.49c0.08,0.33,0.16,0.68,0.26,1.04c0.09,0.43,0.2,0.88,0.32,1.34c0.12,0.5,0.25,1.03,0.39,1.58
				c5.04,20.52,16.92,69.31,25.07,103.02c0.13,0.56,0.26,1.06,0.37,1.52c0.07,0.27,0.13,0.54,0.2,0.81c0.31,1.3,0.48,2,0.48,2
				c0.05,0.19,0.16,0.63,0.3,1.25l0.09,0.42C284.28,429.25,284.67,431.65,284.56,434.06z"/>
			<g>
				<path class="st3" d="M284.56,434.06c-3.24,1.64-8.37-3.15-9.31-7.03c-6.65-27.35-26.51-108.62-27.2-111.22
					c-1.16-4.36-4.2-6.6-8.47-7.17c-3-0.39-6.03-0.57-9.06-0.74c-9.2-0.52-18.41-0.95-27.61-1.47c-18.96-1.09-37.91-2.21-56.87-3.34
					c-9.2-0.55-18.39-1.18-27.58-1.72c-13.28-0.78-26.56-1.58-39.85-2.23c-0.17-0.01-0.32-0.13-0.36-0.3v-0.01
					c-0.01-0.01-0.01-0.01-0.01-0.02c-0.02-0.15-0.04-0.3-0.05-0.45c-0.02-0.13-0.03-0.26-0.04-0.39c-0.07-1.19,0.12-2.24,0.55-3.09
					c0.15-0.29,0.32-0.56,0.53-0.81c0.1-0.12,0.21-0.24,0.33-0.35c1.01-0.97,2.54-1.47,4.52-1.37c13.81,0.66,27.61,1.5,41.41,2.31
					c9.19,0.54,18.38,1.17,27.58,1.72c18.96,1.13,37.92,2.25,56.88,3.33c9.2,0.53,18.4,0.96,27.6,1.48
					c3.03,0.17,6.06,0.34,9.07,0.74c2.4,0.32,4.41,1.16,5.91,2.62c0.84,0.82,1.52,1.81,2.03,3.01c0.2,0.48,0.38,0.99,0.52,1.53
					c0.01,0.05,0.03,0.13,0.06,0.24c0.02,0.07,0.04,0.16,0.07,0.26c0.04,0.19,0.1,0.42,0.17,0.69c0.02,0.09,0.04,0.19,0.07,0.29
					c0.15,0.6,0.34,1.37,0.57,2.29c0.1,0.42,0.21,0.87,0.33,1.35c0.03,0.16,0.07,0.32,0.12,0.49c0.08,0.33,0.16,0.68,0.26,1.04
					c0.09,0.43,0.2,0.88,0.32,1.34c0.12,0.5,0.25,1.03,0.39,1.58c5.88,24.06,20.95,86.09,25.07,103.02
					c0.13,0.56,0.26,1.06,0.37,1.52c0.07,0.29,0.13,0.56,0.2,0.81c0.31,1.3,0.48,2,0.48,2l0.3,1.25l0.09,0.42
					C284.28,429.25,284.67,431.65,284.56,434.06z"/>
			</g>
			<path class="st2" d="M561.99,215.8c-4.59,5.15-10.3,9.11-14.75,14.44c-0.37,0.45-0.74,0.91-1.09,1.37
				c-0.05,0.06-0.1,0.11-0.14,0.17c-0.2,0.26-0.39,0.51-0.57,0.77c-0.18,0.24-0.35,0.49-0.52,0.73c-0.01,0.01-0.02,0.02-0.03,0.04
				c-0.06,0.08-0.11,0.16-0.17,0.24c-0.1,0.15-0.19,0.3-0.29,0.44c0,0.01-0.01,0.01-0.02,0.02c-0.01,0.01-0.02,0.02-0.02,0.03
				c-0.37,0.53-0.71,1.07-1.03,1.61c-0.16,0.26-0.32,0.52-0.47,0.79c-0.15,0.26-0.3,0.52-0.45,0.79c-0.15,0.26-0.29,0.53-0.43,0.8
				c-0.84,1.6-1.56,3.22-2.16,4.88c-0.2,0.55-0.39,1.1-0.57,1.66c-0.46,1.44-0.85,2.9-1.15,4.37c-0.1,0.5-0.19,0.99-0.27,1.49
				c-0.03,0.16-0.06,0.32-0.09,0.48c-0.03,0.16-0.05,0.32-0.08,0.48c-0.08,0.57-0.16,1.16-0.23,1.74c-0.06,0.56-0.11,1.12-0.16,1.68
				c-0.01,0.12-0.02,0.25-0.03,0.38c-0.08,1.08-0.12,2.16-0.13,3.26c-0.01,0.62-0.01,1.25,0,1.88c0.01,0.43,0.02,0.85,0.05,1.28
				c0.01,0.43,0.03,0.86,0.06,1.29c0.08,1.29,0.2,2.59,0.36,3.9c0.1,0.87,0.22,1.75,0.36,2.63c0.1,0.64,0.21,1.28,0.33,1.91
				c0.08,0.47,0.17,0.94,0.27,1.41c0.1,0.51,0.21,1.02,0.31,1.53c0.22,1.01,0.46,2.02,0.71,3.03c0.13,0.5,0.26,1.01,0.39,1.51
				c0.17,0.66,0.35,1.33,0.54,1.99c0.38,1.33,0.77,2.65,1.18,3.97c1.81,5.85,3.91,11.63,5.74,17.48c0.23,0.73,0.45,1.45,0.67,2.18
				c0.3,1,0.59,1.99,0.86,2.99c0.11,0.4,0.22,0.79,0.32,1.19c0.19,0.69,0.37,1.39,0.55,2.09c0.35,1.41,0.69,2.82,0.99,4.24
				c0.15,0.69,0.29,1.38,0.43,2.07c0.14,0.7,0.28,1.41,0.4,2.11c0.13,0.66,0.24,1.33,0.35,1.99c0.07,0.47,0.15,0.94,0.22,1.41
				c0,0.02,0.01,0.04,0.01,0.06c0.08,0.52,0.15,1.03,0.22,1.55c0.07,0.45,0.13,0.91,0.18,1.36c0.08,0.59,0.15,1.19,0.21,1.79
				c0.03,0.19,0.05,0.39,0.06,0.59c0.07,0.63,0.13,1.25,0.18,1.88c0.06,0.71,0.11,1.42,0.16,2.14c0.03,0.51,0.06,1.02,0.09,1.54
				c0.08,1.67,0.12,3.35,0.12,5.03c0,0.58-0.01,1.16-0.02,1.73c-0.01,0.49-0.02,0.97-0.04,1.46c-0.01,0.43-0.03,0.85-0.05,1.28V343
				c-0.03,0.61-0.06,1.21-0.11,1.81c-0.04,0.73-0.1,1.45-0.17,2.17c-0.07,0.75-0.15,1.5-0.24,2.25c-0.02,0.24-0.05,0.47-0.08,0.7
				c-0.1,0.82-0.21,1.64-0.34,2.46c-0.13,0.89-0.28,1.78-0.44,2.66c0,0.02-0.01,0.04-0.01,0.06c-0.16,0.87-0.33,1.72-0.51,2.58
				c-0.18,0.87-0.38,1.74-0.59,2.6c-0.21,0.86-0.43,1.71-0.67,2.56c-0.01,0.04-0.02,0.09-0.03,0.13c-0.21,0.74-0.42,1.49-0.65,2.22
				c-0.04,0.14-0.08,0.27-0.12,0.4c-0.21,0.66-0.42,1.32-0.64,1.97c-0.04,0.12-0.08,0.24-0.12,0.36c-0.28,0.8-0.56,1.59-0.86,2.38
				c-0.05,0.14-0.11,0.28-0.16,0.42c-0.2,0.53-0.41,1.05-0.62,1.57c-0.43,1.07-0.88,2.13-1.35,3.18c-0.22,0.49-0.45,0.98-0.68,1.46
				c-0.24,0.51-0.48,1.02-0.73,1.52c-0.26,0.51-0.51,1.01-0.77,1.51c-0.29,0.55-0.58,1.1-0.89,1.65c-0.71,1.31-1.46,2.6-2.25,3.88
				c-1.86,3.04-3.93,6-6.19,8.88c-3.82,4.87-7.96,9.2-12.43,12.98c-0.05,0.04-0.1,0.09-0.15,0.13
				c-10.33,8.72-22.45,14.47-36.58,16.82c-2.32,0.39-4.66,0.57-7.01,0.81h-0.01c-0.29,0.03-0.61-0.1-1.14-0.21
				c4.13-7.93,6.57-16.33,8.21-24.97c0.2-1.07,0.72-1.48,1.63-1.85c0.35-0.14,0.69-0.29,1.03-0.44c0-0.01,0.01-0.01,0.02-0.01
				c3.98-1.71,7.57-3.8,10.82-6.23c3.46-2.57,6.52-5.51,9.23-8.78c4.64-5.6,8.25-12.16,11.04-19.47c0.72-1.88,1.34-3.77,1.86-5.66
				c0.14-0.51,0.27-1.01,0.39-1.52c0.11-0.42,0.21-0.83,0.3-1.25c0.34-1.5,0.61-3,0.84-4.5c0.11-0.75,0.21-1.51,0.29-2.26
				c0.08-0.65,0.14-1.3,0.2-1.96c0-0.03,0-0.06,0.01-0.09c0.04-0.62,0.09-1.24,0.12-1.86c0.04-0.66,0.07-1.31,0.08-1.96
				c0.02-0.65,0.03-1.29,0.03-1.93c0-1.66-0.05-3.31-0.16-4.96c-0.03-0.41-0.06-0.81-0.09-1.22c-0.02-0.32-0.05-0.64-0.08-0.96
				c-0.04-0.5-0.09-1-0.15-1.5c-0.04-0.41-0.09-0.82-0.14-1.23c-0.01-0.07-0.02-0.14-0.03-0.21c-0.06-0.56-0.14-1.12-0.22-1.68
				c-0.03-0.22-0.06-0.45-0.1-0.67c-0.1-0.68-0.2-1.36-0.32-2.04c-0.09-0.55-0.19-1.1-0.29-1.65c-0.08-0.44-0.17-0.89-0.26-1.34
				c-0.1-0.53-0.21-1.07-0.33-1.6c-0.1-0.48-0.2-0.96-0.31-1.43c-0.12-0.56-0.25-1.11-0.38-1.66c-0.12-0.5-0.24-1.01-0.37-1.51
				c-0.19-0.76-0.38-1.53-0.59-2.29c-0.2-0.77-0.41-1.53-0.62-2.3c-0.52-1.87-1.09-3.73-1.68-5.58c-0.25-0.78-0.52-1.56-0.77-2.34
				c-0.3-0.92-0.61-1.84-0.92-2.76c-0.49-1.46-0.99-2.92-1.49-4.38c-0.45-1.3-0.89-2.6-1.33-3.9c-0.56-1.64-1.11-3.27-1.64-4.92
				c-0.27-0.85-0.54-1.7-0.8-2.55c-0.28-0.86-0.54-1.72-0.79-2.57c-0.14-0.48-0.27-0.96-0.41-1.44c-0.16-0.56-0.31-1.12-0.46-1.68
				c-0.15-0.56-0.3-1.12-0.44-1.68c-0.15-0.59-0.29-1.17-0.43-1.76c-0.06-0.27-0.13-0.54-0.19-0.81c0-0.01,0-0.02-0.01-0.03
				c-0.12-0.52-0.24-1.04-0.35-1.56c-0.12-0.53-0.24-1.07-0.35-1.6c-0.11-0.53-0.22-1.06-0.33-1.59c-0.42-2.12-0.79-4.24-1.1-6.36
				c-0.07-0.53-0.15-1.06-0.22-1.59c-0.12-0.96-0.24-1.92-0.34-2.87c-0.01-0.18-0.03-0.35-0.05-0.52c-0.1-0.99-0.18-1.97-0.25-2.95
				c-0.1-1.54-0.17-3.08-0.21-4.62c0.01-0.04,0.01-0.09,0-0.13c-0.05-2.86,0.04-5.71,0.28-8.56c0.08-0.97,0.18-1.93,0.3-2.9
				c0.36-2.89,0.89-5.78,1.6-8.66c0.12-0.48,0.24-0.97,0.37-1.45c0-0.01,0.01-0.02,0.01-0.03c0.12-0.44,0.24-0.89,0.37-1.33
				c0.31-1.09,0.65-2.17,1.02-3.25c0.21-0.58,0.42-1.17,0.63-1.75c0.03-0.06,0.05-0.13,0.08-0.19c0.19-0.52,0.39-1.03,0.6-1.54
				c0.03-0.09,0.07-0.19,0.11-0.29c0.25-0.59,0.5-1.19,0.76-1.78c0.06-0.13,0.12-0.28,0.19-0.43c0.32-0.71,0.64-1.41,0.98-2.1
				c0.18-0.38,0.36-0.75,0.55-1.13c0.64-1.28,1.31-2.52,2.01-3.74c0.19-0.33,0.38-0.66,0.58-0.99c0.74-1.24,1.52-2.44,2.33-3.61
				c0.39-0.56,0.78-1.1,1.19-1.64c0.32-0.44,0.65-0.87,0.99-1.29c0.34-0.43,0.68-0.84,1.02-1.25c0.05-0.05,0.1-0.11,0.14-0.16
				c0.37-0.43,0.74-0.85,1.12-1.27c0.04-0.05,0.09-0.1,0.13-0.15c0.4-0.43,0.79-0.84,1.2-1.26c0.42-0.43,0.85-0.85,1.29-1.27
				c0.36-0.34,0.73-0.67,1.1-1c0.53-0.48,1.07-0.94,1.63-1.39c0.45-0.37,0.91-0.73,1.38-1.07c0.05-0.05,0.11-0.09,0.17-0.13
				c0.41-0.31,0.83-0.61,1.25-0.89c0.06-0.05,0.11-0.09,0.17-0.12c0.44-0.3,0.88-0.6,1.33-0.88c0.11-0.07,0.22-0.14,0.33-0.2
				c0.41-0.26,0.83-0.51,1.25-0.75c0.11-0.07,0.22-0.14,0.33-0.19c0.34-0.2,0.68-0.39,1.02-0.56c0.2-0.12,0.41-0.22,0.62-0.33
				c0.09-0.05,0.19-0.1,0.29-0.14c0.42-0.22,0.84-0.43,1.27-0.63c0.47-0.22,0.94-0.43,1.43-0.64c0.19-0.09,0.39-0.17,0.59-0.25
				c0.51-0.21,1.03-0.41,1.55-0.61c7.93-2.96,16.08-3.36,23.45,1.97c3,2.16,5.03,5.13,5.16,9.38
				C568.37,207.33,565.6,211.74,561.99,215.8z"/>
			<path class="st1" d="M293.08,442.84c3.89-4.4-0.07-14.23,4.71-14.22c19.62-2.82,39.22-5.82,58.85-8.61
				c11.23-2.9,14.85,1.39,12.29,12.42c-0.95,1.9-4.89,2.11-7.49,2.45C338.6,437.49,315.89,440.96,293.08,442.84z"/>
			<path d="M323.87,203.7c0.82,2.72-0.36,4.73-1.65,6.55c-10.93,15.47-32.46,16.29-43.32,5.15c-1.52-1.56-2.3-0.5-3.28,0.1
				c-11.57,7.12-23.38,3.52-31.07-5.38c-2.22-2.57-4.05-5.44-3.94-9.1c0.07-2.32,1.33-3.95,3.44-4.5c2.11-0.55,3.64,0.65,4.55,2.61
				c0.28,0.61,0.54,1.25,0.87,1.83c2.11,3.76,4.91,6.66,9.19,7.92c5.34,1.58,9.95-0.34,12.17-5.47c0.75-1.73,1.08-3.67,1.51-5.53
				c0.4-1.71-0.16-2.67-1.86-3.7c-5.63-3.41-8.78-8.51-8.95-15.32c-0.06-2.46,0.86-4.13,3.1-5.08c8.93-3.79,17.95-3.56,26.8-0.05
				c4.55,1.8,5.56,5.12,3.6,9.69c-2.06,4.83-5.49,8.5-10.12,10.94c-1.64,0.86-2.4,1.56-1.99,3.81c1.51,8.38,4.15,12.3,11,13.51
				c7.18,1.26,13.9,0.05,18.63-6.43c0.73-1,1.43-2.03,2.2-3.01C317.81,198.34,321.67,198.85,323.87,203.7z"/>
			<path d="M353.36,160.26c-0.23,3.93-0.87,7.46-2.39,10.79c-2.13,4.64-5.3,7.76-10.78,7.66c-5.4-0.1-9.21-2.62-11.24-7.6
				c-3.4-8.34-2.52-16.46,2.33-23.89c5.19-7.97,15.15-7.16,19.47,1.3C352.58,152.12,353.1,156,353.36,160.26z"/>
			<path d="M227.67,169.85c-4.75-9.54-4.95-18.95,0.31-27.97c4.74-8.13,13.59-7.68,18.12,0.6c4.29,7.83,3.29,20.59-2.15,27.63
				C239.26,176.15,233.32,176.13,227.67,169.85z"/>
			<path class="st4" d="M183.3,362.54c5.13,7.22,4.5,15.26-1.38,19.11c-4.58,3.01-9.25,2.57-13.63-0.25
				c-4.77-3.07-6.68-7.84-6.38-13.41c0.25-4.66,2.48-8.34,6.95-9.93C174.5,356.06,179.13,358.37,183.3,362.54z"/>
			<path class="st0" d="M416.5,33.85c0,0-19.15,17.92-41.21,39.4c-1.48,1.44,14.39,1.58,37.61,27.34c0.68,0.76,3.57,3.9,3.63,3.66
				C423.65,76.98,418.49,32.23,416.5,33.85z"/>
			<path class="st0" d="M248.66,73.04c0,0-27.11,7.06-39.05,25.92c-0.92,1.45-10.45-42.31,1.35-65.15
				C214.21,27.5,250.49,71.79,248.66,73.04z"/>
			<path class="st0" d="M433.82,284.26c-7.54,8.39-22.1,19.02-27.53,19.67c-25.52,3.07-2.42-17.28,4.95-27.52
				c2.01-2.78,3.5-5.79,5.37-8.16C422.62,273.18,428.39,278.54,433.82,284.26z"/>
			<path class="st0" d="M283.92,67.37c-1.31,4.12-4.11,15.82-4.78,18.71c-9.36,40.41-23.56,11.08-16.92-16.89
				c1.66,0.83,3.53,1.18,5.68,0.83C273.22,68.87,278.56,68,283.92,67.37z"/>
			<path class="st0" d="M255.25,292.56c-1.49-0.73-3.16-1.29-5.04-1.67c2.68-6.28,5.37-12.4,7.9-18.58
				c0.72-1.76,1.54-1.56,3.09-1.15c5.84,0.69,25.1,7.72,31.51,3.94C293.72,281.46,276.12,290.3,255.25,292.56z"/>
			<path class="st0" d="M328.91,67.27c-10.93,26.43-1.74,57.28,14.05,19.11c0.96-2.32,4.45-10.6,6.7-15.43L328.91,67.27z"/>
			<path class="st0" d="M316.01,66.3c-1.77,5.12-5.1,16.28-5.73,19.26c-12.59,59.32-25.78,15.39-16.09-19.12
				C301.44,66,308.71,65.97,316.01,66.3z"/>
			<path class="st0" d="M464.16,328.1c-8.5,8.93-33.24,21-39.52,17.36c-13.45-7.8,5.22-8.44,23.84-34.52
				c1.43-2.01,2.44-3.49,3.25-4.55C456.46,313.33,460.65,320.59,464.16,328.1z"/>
			<path class="st0" d="M521.7,407.36c-0.01,0.04-0.03,0.09-0.05,0.13c-10.33,8.72-22.45,14.47-36.58,16.82
				c-2.32,0.39-4.67,0.57-7.02,0.81h-0.1c-0.27,0-0.57-0.11-1.04-0.21c4.13-7.93,6.57-16.33,8.21-24.97
				c0.2-1.07,0.72-1.48,1.63-1.85c0.28-0.11,0.59-0.26,0.93-0.44c0-0.01,0.01-0.01,0.02-0.01c3.98-1.71,7.57-3.8,10.82-6.23
				c3.46-2.57,6.52-5.51,9.23-8.78c0.1-0.07,0.19-0.14,0.27-0.2C515.36,382.43,525.27,399.07,521.7,407.36z"/>
			<path class="st0" d="M553.4,341.67c-0.06,1.77-0.16,3.54-0.33,5.31c-0.67,7.29-2.16,14.28-4.44,20.95
				c-0.32,0.94-0.66,1.87-1.02,2.8c-5.1-8.47-14.65-14.28-26.96-13.23c0.87-3.17,1.46-6.35,1.82-9.53
				c0.68-5.89,0.54-11.78-0.18-17.67C534.94,328.41,545.43,333.7,553.4,341.67z"/>
			<path class="st0" d="M548.97,307.44c-8.41-4.51-19.91-6.03-32.77-2.89c-2.86-8.8-6.19-17.44-8.46-26.43
				c-0.22-0.86-0.42-1.71-0.62-2.57c11.04-3.8,21.69-4.33,31.45-2.79c2.14,10.89,6.38,21.12,9.54,31.69
				C548.41,305.45,548.7,306.44,548.97,307.44z"/>
			<path class="st0" d="M546.01,231.78c-0.2,0.26-0.39,0.51-0.57,0.77c-0.18,0.24-0.35,0.49-0.52,0.73
				c-0.01,0.01-0.02,0.02-0.03,0.04c-0.06,0.08-0.11,0.16-0.17,0.24c-0.1,0.15-0.19,0.3-0.29,0.44c0,0.01-0.01,0.01-0.02,0.02
				c-0.01,0.01-0.02,0.02-0.02,0.03c-0.37,0.53-0.71,1.07-1.03,1.61c-0.16,0.26-0.32,0.52-0.47,0.79c-0.15,0.26-0.3,0.52-0.45,0.79
				c-0.15,0.26-0.29,0.53-0.43,0.8c-0.84,1.6-1.56,3.22-2.16,4.88c-0.2,0.55-0.39,1.1-0.57,1.66c-0.46,1.44-0.85,2.9-1.15,4.37
				c-0.1,0.5-0.19,0.99-0.27,1.49c0-0.01-0.01-0.01-0.01-0.02c-11.01-20.16-23.37-20.25-31.76-18.81c0.12-0.48,0.24-0.97,0.37-1.45
				c0-0.01,0.01-0.02,0.01-0.03c0.12-0.44,0.24-0.89,0.37-1.33c0.31-1.09,0.65-2.17,1.02-3.25c0.21-0.58,0.42-1.17,0.63-1.75
				c0.03-0.06,0.05-0.13,0.08-0.19c0.19-0.52,0.39-1.03,0.6-1.54c0.03-0.09,0.07-0.19,0.11-0.29c0.25-0.59,0.5-1.19,0.76-1.78
				c0.06-0.13,0.12-0.28,0.19-0.43c0.32-0.71,0.64-1.41,0.98-2.1c0.18-0.38,0.36-0.75,0.55-1.13c0.64-1.28,1.31-2.52,2.01-3.74
				c0.19-0.33,0.38-0.66,0.58-0.99c0.74-1.24,1.52-2.44,2.33-3.61c0.39-0.56,0.78-1.1,1.19-1.64c0.32-0.44,0.65-0.87,0.99-1.29
				c0.34-0.43,0.68-0.84,1.02-1.25c0.05-0.05,0.1-0.11,0.14-0.16c0.37-0.43,0.74-0.85,1.12-1.27c0.04-0.05,0.09-0.1,0.13-0.15
				c0.4-0.43,0.79-0.84,1.2-1.26c0.42-0.43,0.85-0.85,1.29-1.27C533.81,202.76,543.72,215.38,546.01,231.78z"/>
		</g>
	</g>
</g>
</svg>
