<svg xmlns="http://www.w3.org/2000/svg" fill="none" viewBox="0 0 260 135">
  <path fill="#1B2A36" d="M21.0455 65V18.4545h18.3636c3.5303 0 6.5379.6743 9.0227 2.0228 2.4849 1.3333 4.3788 3.1894 5.6818 5.5682 1.3182 2.3636 1.9773 5.0909 1.9773 8.1818 0 3.0909-.6667 5.8182-2 8.1818-1.3333 2.3636-3.2651 4.2045-5.7954 5.5227-2.5152 1.3182-5.5607 1.9773-9.1364 1.9773H27.4545v-7.8864h10.1137c1.8939 0 3.4545-.3257 4.6818-.9772 1.2424-.6667 2.1667-1.5834 2.7727-2.75.6212-1.1819.9318-2.5379.9318-4.0682 0-1.5455-.3106-2.894-.9318-4.0455-.606-1.1667-1.5303-2.0682-2.7727-2.7045-1.2424-.6515-2.8182-.9773-4.7273-.9773h-6.6363V65h-9.8409Zm51.2784-46.5455V65H62.483V18.4545h9.8409Zm17.3238 0 9.3864 15.8637h.3636l9.4323-15.8637h11.113l-14.204 23.2728L120.261 65h-11.318l-9.5453-15.8864h-.3636L89.4886 65H78.2159l14.5682-23.2727-14.2955-23.2728h11.1591ZM126.17 65V18.4545h31.364v8.1137h-21.523v11.0909h19.909v8.1136h-19.909v11.1137h21.614V65H126.17Zm39.188 0V18.4545h9.841v38.4319h19.954V65h-29.795ZM33.5369 90.1818v3.9773H20.9943v-3.9773h12.5426Zm-9.446-5.2273h5.1421v20.4835c0 .691.1041 1.221.3125 1.59.2178.36.5018.606.8522.739.3504.133.7387.199 1.1648.199.322 0 .6155-.024.8807-.071.2746-.047.4829-.09.625-.128l.8665 4.02c-.2747.095-.6677.199-1.179.312-.5019.114-1.1174.18-1.8466.199-1.2879.038-2.4479-.156-3.4801-.582-1.0322-.436-1.8513-1.108-2.4574-2.017-.5966-.909-.8902-2.046-.8807-3.409V84.9545Zm27.9712 27.4715c-2.1875 0-4.0767-.454-5.6676-1.364-1.5815-.918-2.7983-2.215-3.6506-3.892-.8523-1.685-1.2784-3.669-1.2784-5.951 0-2.2446.4261-4.2143 1.2784-5.9093.8617-1.7046 2.0644-3.0303 3.6079-3.9773 1.5436-.9565 3.3571-1.4347 5.4404-1.4347 1.3447 0 2.6136.2178 3.8068.6534 1.2027.4262 2.2633 1.0891 3.1818 1.9887.9281.8996 1.6572 2.0454 2.1875 3.4375.5303 1.3825.7955 3.0303.7955 4.9427v1.577H43.8803v-3.4658h12.9545c-.0095-.9848-.2225-1.8607-.6392-2.6278-.4167-.7765-.9991-1.3873-1.7472-1.8324-.7386-.4451-1.6003-.6676-2.5852-.6676-1.0511 0-1.9744.2557-2.7699.7671-.7954.5018-1.4157 1.1647-1.8608 1.9886-.4356.8144-.6581 1.7093-.6676 2.6847v3.0252c0 1.269.232 2.358.696 3.267.4641.9 1.1127 1.591 1.9461 2.074.8333.474 1.8087.71 2.9261.71.7481 0 1.4252-.104 2.0312-.312.6061-.218 1.1317-.535 1.5768-.952.445-.416.7812-.933 1.0085-1.548l4.8011.54c-.303 1.269-.8807 2.377-1.7329 3.324-.8428.937-1.9224 1.666-3.2387 2.187-1.3163.511-2.822.767-4.517.767Zm28.3689 0c-2.1781 0-4.0483-.478-5.6108-1.435-1.5531-.956-2.751-2.277-3.5938-3.963-.8333-1.695-1.25-3.645-1.25-5.852 0-2.2158.4262-4.1713 1.2784-5.8663.8523-1.7046 2.055-3.0303 3.608-3.9773 1.5625-.9565 3.4091-1.4347 5.5398-1.4347 1.7708 0 3.338.3267 4.7017.9801 1.3731.644 2.4668 1.5578 3.2812 2.7415.8144 1.1743 1.2784 2.5474 1.3921 4.1193h-4.9148c-.1989-1.0511-.6724-1.927-1.4205-2.6278-.7386-.7102-1.7282-1.0653-2.9687-1.0653-1.0512 0-1.9745.284-2.7699.8522-.7955.5587-1.4157 1.3637-1.8608 2.4148-.4356 1.0511-.6534 2.3106-.6534 3.7785 0 1.487.2178 2.765.6534 3.835.4356 1.061 1.0464 1.88 1.8324 2.458.7954.568 1.7282.852 2.7983.852.7576 0 1.4346-.142 2.0312-.426.6061-.294 1.1127-.715 1.5199-1.265.4072-.549.6866-1.216.8381-2.002h4.9148c-.1232 1.543-.5777 2.912-1.3637 4.105-.786 1.183-1.856 2.111-3.2102 2.784-1.3542.663-2.9451.994-4.7727.994Zm23.511-13.2101V112h-5.1421V82.9091h5.0281v10.9801h.256c.511-1.2311 1.302-2.2017 2.372-2.9119 1.08-.7197 2.453-1.0796 4.119-1.0796 1.516 0 2.837.3173 3.963.9517 1.127.6345 1.999 1.5625 2.614 2.7841.625 1.2216.938 2.7131.938 4.4745V112h-5.142V98.9034c0-1.4678-.379-2.6089-1.137-3.4233-.748-.8239-1.799-1.2358-3.153-1.2358-.909 0-1.724.1989-2.443.5966-.711.3883-1.269.9517-1.677 1.6903-.397.7387-.596 1.6336-.596 2.6847ZM143.08 112V82.9091h5.142v10.8807h.213c.266-.5303.64-1.0938 1.123-1.6904.482-.606 1.136-1.1221 1.96-1.5483.824-.4356 1.875-.6534 3.153-.6534 1.686 0 3.206.4309 4.56 1.2926 1.363.8523 2.443 2.1165 3.238 3.7927.805 1.6666 1.208 3.7121 1.208 6.136 0 2.396-.393 4.432-1.179 6.108-.786 1.676-1.856 2.955-3.21 3.835-1.355.881-2.889 1.322-4.603 1.322-1.25 0-2.287-.209-3.11-.625-.824-.417-1.487-.919-1.989-1.506-.492-.597-.876-1.16-1.151-1.691h-.298V112h-5.057Zm5.043-10.909c0 1.411.199 2.647.596 3.707.408 1.061.99 1.889 1.748 2.486.767.587 1.695.881 2.784.881 1.136 0 2.088-.303 2.855-.909.767-.616 1.345-1.454 1.733-2.515.398-1.07.596-2.286.596-3.65 0-1.3543-.194-2.5569-.582-3.608-.388-1.0512-.966-1.875-1.733-2.4716-.767-.5966-1.723-.8949-2.869-.8949-1.099 0-2.032.2888-2.799.8665-.767.5776-1.349 1.3873-1.747 2.4289-.388 1.0417-.582 2.268-.582 3.6791Zm29.867-18.1819V112h-5.142V82.9091h5.142Zm19.605 29.5169c-2.131 0-3.977-.469-5.54-1.406-1.562-.938-2.774-2.249-3.636-3.935-.852-1.685-1.279-3.655-1.279-5.909 0-2.2537.427-4.2281 1.279-5.9232.862-1.695 2.074-3.0113 3.636-3.9488 1.563-.9375 3.409-1.4063 5.54-1.4063 2.131 0 3.977.4688 5.54 1.4063 1.562.9375 2.77 2.2538 3.622 3.9488.862 1.6951 1.293 3.6695 1.293 5.9232 0 2.254-.431 4.224-1.293 5.909-.852 1.686-2.06 2.997-3.622 3.935-1.563.937-3.409 1.406-5.54 1.406Zm.028-4.119c1.156 0 2.122-.317 2.898-.952.777-.644 1.354-1.506 1.733-2.585.388-1.08.583-2.282.583-3.608 0-1.3353-.195-2.5427-.583-3.6222-.379-1.089-.956-1.9555-1.733-2.5995-.776-.6439-1.742-.9659-2.898-.9659-1.183 0-2.168.322-2.954.9659-.777.644-1.359 1.5105-1.747 2.5995-.379 1.0795-.568 2.2869-.568 3.6222 0 1.326.189 2.528.568 3.608.388 1.079.97 1.941 1.747 2.585.786.635 1.771.952 2.954.952Zm29.08 12.329c-1.847 0-3.433-.251-4.759-.752-1.326-.493-2.391-1.156-3.196-1.989-.805-.833-1.364-1.757-1.676-2.77l4.631-1.122c.208.426.511.847.909 1.264.397.426.932.777 1.605 1.051.682.284 1.539.426 2.571.426 1.458 0 2.665-.355 3.622-1.065.956-.701 1.435-1.856 1.435-3.466v-4.133h-.256c-.265.53-.653 1.074-1.165 1.633-.502.559-1.169 1.028-2.003 1.406-.824.379-1.86.569-3.11.569-1.677 0-3.197-.393-4.56-1.179-1.354-.796-2.434-1.98-3.239-3.552-.795-1.581-1.193-3.56-1.193-5.937 0-2.3959.398-4.4177 1.193-6.0655.805-1.6572 1.889-2.9119 3.253-3.7642 1.364-.8617 2.884-1.2926 4.56-1.2926 1.278 0 2.329.2178 3.153.6534.833.4262 1.496.9423 1.989 1.5483.492.5966.866 1.1601 1.122 1.6904h.284v-3.608h5.071v22.1732c0 1.866-.445 3.409-1.335 4.631-.89 1.221-2.107 2.135-3.651 2.741-1.543.606-3.295.909-5.255.909Zm.042-12.983c1.089 0 2.017-.265 2.784-.795.767-.53 1.35-1.293 1.747-2.287.398-.994.597-2.187.597-3.58 0-1.3726-.199-2.5753-.597-3.6075-.388-1.0322-.965-1.8324-1.733-2.4005-.757-.5777-1.69-.8665-2.798-.8665-1.146 0-2.102.2983-2.869.8949-.767.5966-1.345 1.4157-1.733 2.4574-.388 1.0321-.582 2.2064-.582 3.5222 0 1.336.194 2.505.582 3.509.398.994.98 1.771 1.747 2.33.777.549 1.728.823 2.855.823Z"/>
</svg>
