<svg width="216" height="130" viewBox="0 0 216 130" fill="none" xmlns="http://www.w3.org/2000/svg">
<path d="M0.0511384 62V15.4545H18.4148C21.9451 15.4545 24.9527 16.1288 27.4375 17.4773C29.9224 18.8106 31.8163 20.6667 33.1193 23.0455C34.4375 25.4091 35.0966 28.1364 35.0966 31.2273C35.0966 34.3182 34.4299 37.0455 33.0966 39.4091C31.7633 41.7727 29.8314 43.6136 27.3011 44.9318C24.786 46.25 21.7405 46.9091 18.1648 46.9091H6.46023V39.0227H16.5739C18.4678 39.0227 20.0284 38.697 21.2557 38.0455C22.4981 37.3788 23.4224 36.4621 24.0284 35.2955C24.6496 34.1136 24.9602 32.7576 24.9602 31.2273C24.9602 29.6818 24.6496 28.3333 24.0284 27.1818C23.4224 26.0151 22.4981 25.1136 21.2557 24.4773C20.0133 23.8258 18.4375 23.5 16.5284 23.5H9.89205V62H0.0511384ZM51.3295 15.4545V62H41.4886V15.4545H51.3295ZM68.6534 15.4545L78.0398 31.3182H78.4034L87.8352 15.4545H98.9489L84.7443 38.7273L99.267 62H87.9489L78.4034 46.1136H78.0398L68.4943 62H57.2216L71.7898 38.7273L57.4943 15.4545H68.6534ZM105.176 62V15.4545H136.54V23.5682H115.017V34.6591H134.926V42.7727H115.017V53.8864H136.631V62H105.176ZM144.364 62V15.4545H154.205V53.8864H174.159V62H144.364Z" fill="white"/>
<path d="M12.5426 87.1818V91.1591H2.10106e-06V87.1818H12.5426ZM3.09659 81.9545H8.23864V102.438C8.23864 103.129 8.34281 103.659 8.55114 104.028C8.76894 104.388 9.05303 104.634 9.40341 104.767C9.75379 104.9 10.142 104.966 10.5682 104.966C10.8902 104.966 11.1837 104.942 11.4489 104.895C11.7235 104.848 11.9318 104.805 12.0739 104.767L12.9403 108.787C12.6657 108.882 12.2727 108.986 11.7614 109.099C11.2595 109.213 10.6439 109.279 9.91478 109.298C8.6269 109.336 7.46686 109.142 6.43466 108.716C5.40246 108.28 4.58334 107.608 3.97727 106.699C3.38068 105.79 3.08712 104.653 3.09659 103.29V81.9545ZM31.0678 109.426C28.8803 109.426 26.9911 108.972 25.4001 108.062C23.8187 107.144 22.6018 105.847 21.7496 104.17C20.8973 102.485 20.4712 100.501 20.4712 98.2188C20.4712 95.9744 20.8973 94.0047 21.7496 92.3097C22.6113 90.6051 23.814 89.2794 25.3575 88.3324C26.9011 87.3759 28.7145 86.8977 30.7979 86.8977C32.1426 86.8977 33.4115 87.1155 34.6047 87.5511C35.8073 87.9773 36.8679 88.6402 37.7865 89.5398C38.7145 90.4394 39.4437 91.5852 39.974 92.9773C40.5043 94.3598 40.7695 96.0076 40.7695 97.9205V99.4972H22.8859V96.0312H35.8405C35.831 95.0464 35.6179 94.1705 35.2013 93.4034C34.7846 92.6269 34.2022 92.0161 33.4541 91.571C32.7155 91.1259 31.8537 90.9034 30.8689 90.9034C29.8178 90.9034 28.8945 91.1591 28.099 91.6705C27.3036 92.1723 26.6833 92.8352 26.2382 93.6591C25.8026 94.4735 25.5801 95.3684 25.5706 96.3438V99.3693C25.5706 100.638 25.8026 101.727 26.2666 102.636C26.7306 103.536 27.3793 104.227 28.2126 104.71C29.046 105.184 30.0214 105.42 31.1388 105.42C31.8869 105.42 32.564 105.316 33.17 105.108C33.7761 104.89 34.3017 104.573 34.7467 104.156C35.1918 103.74 35.528 103.223 35.7553 102.608L40.5564 103.148C40.2534 104.417 39.6757 105.525 38.8234 106.472C37.9806 107.409 36.9011 108.138 35.5848 108.659C34.2685 109.17 32.7628 109.426 31.0678 109.426ZM59.4366 109.426C57.2586 109.426 55.3884 108.948 53.8259 107.991C52.2728 107.035 51.0749 105.714 50.2321 104.028C49.3988 102.333 48.9821 100.383 48.9821 98.1761C48.9821 95.9602 49.4082 94.0047 50.2605 92.3097C51.1128 90.6051 52.3154 89.2794 53.8685 88.3324C55.431 87.3759 57.2776 86.8977 59.4082 86.8977C61.1791 86.8977 62.7463 87.2244 64.1099 87.8778C65.4831 88.5218 66.5768 89.4356 67.3912 90.6193C68.2056 91.7936 68.6696 93.1667 68.7832 94.7386H63.8685C63.6696 93.6875 63.1961 92.8116 62.448 92.1108C61.7094 91.4006 60.7198 91.0455 59.4793 91.0455C58.4281 91.0455 57.5048 91.3295 56.7094 91.8977C55.9139 92.4564 55.2937 93.2614 54.8486 94.3125C54.413 95.3636 54.1952 96.6231 54.1952 98.0909C54.1952 99.5777 54.413 100.856 54.8486 101.926C55.2842 102.987 55.895 103.806 56.681 104.384C57.4764 104.952 58.4092 105.236 59.4793 105.236C60.2368 105.236 60.9139 105.094 61.5105 104.81C62.1166 104.516 62.6232 104.095 63.0304 103.545C63.4376 102.996 63.717 102.329 63.8685 101.543H68.7832C68.6601 103.086 68.2056 104.455 67.4196 105.648C66.6336 106.831 65.5635 107.759 64.2094 108.432C62.8552 109.095 61.2643 109.426 59.4366 109.426ZM82.9476 96.2159V109H77.8055V79.9091H82.834V90.8892H83.0896C83.601 89.6581 84.3917 88.6875 85.4618 87.9773C86.5413 87.2576 87.9144 86.8977 89.5811 86.8977C91.0963 86.8977 92.4173 87.215 93.5442 87.8494C94.6711 88.4839 95.5423 89.4119 96.1578 90.6335C96.7828 91.8551 97.0953 93.3466 97.0953 95.108V109H91.9533V95.9034C91.9533 94.4356 91.5745 93.2945 90.8169 92.4801C90.0688 91.6562 89.0177 91.2443 87.6635 91.2443C86.7544 91.2443 85.94 91.4432 85.2203 91.8409C84.5101 92.2292 83.9514 92.7926 83.5442 93.5312C83.1465 94.2699 82.9476 95.1648 82.9476 96.2159ZM122.086 109V79.9091H127.228V90.7898H127.441C127.706 90.2595 128.08 89.696 128.563 89.0994C129.046 88.4934 129.7 87.9773 130.523 87.5511C131.347 87.1155 132.398 86.8977 133.677 86.8977C135.362 86.8977 136.882 87.3286 138.237 88.1903C139.6 89.0426 140.68 90.3068 141.475 91.983C142.28 93.6496 142.683 95.6951 142.683 98.1193C142.683 100.515 142.29 102.551 141.504 104.227C140.718 105.903 139.647 107.182 138.293 108.062C136.939 108.943 135.405 109.384 133.691 109.384C132.441 109.384 131.404 109.175 130.58 108.759C129.756 108.342 129.094 107.84 128.592 107.253C128.099 106.656 127.716 106.093 127.441 105.562H127.143V109H122.086ZM127.129 98.0909C127.129 99.5019 127.327 100.738 127.725 101.798C128.132 102.859 128.715 103.687 129.472 104.284C130.239 104.871 131.167 105.165 132.256 105.165C133.393 105.165 134.344 104.862 135.112 104.256C135.879 103.64 136.456 102.802 136.844 101.741C137.242 100.671 137.441 99.4545 137.441 98.0909C137.441 96.7367 137.247 95.5341 136.859 94.483C136.47 93.4318 135.893 92.608 135.126 92.0114C134.359 91.4148 133.402 91.1165 132.256 91.1165C131.158 91.1165 130.225 91.4053 129.458 91.983C128.691 92.5606 128.109 93.3703 127.711 94.4119C127.323 95.4536 127.129 96.6799 127.129 98.0909ZM156.996 79.9091V109H151.854V79.9091H156.996ZM176.601 109.426C174.47 109.426 172.623 108.957 171.061 108.02C169.498 107.082 168.286 105.771 167.425 104.085C166.572 102.4 166.146 100.43 166.146 98.1761C166.146 95.9223 166.572 93.9479 167.425 92.2528C168.286 90.5578 169.498 89.2415 171.061 88.304C172.623 87.3665 174.47 86.8977 176.601 86.8977C178.731 86.8977 180.578 87.3665 182.14 88.304C183.703 89.2415 184.91 90.5578 185.763 92.2528C186.624 93.9479 187.055 95.9223 187.055 98.1761C187.055 100.43 186.624 102.4 185.763 104.085C184.91 105.771 183.703 107.082 182.14 108.02C180.578 108.957 178.731 109.426 176.601 109.426ZM176.629 105.307C177.784 105.307 178.75 104.99 179.527 104.355C180.303 103.711 180.881 102.849 181.26 101.77C181.648 100.69 181.842 99.4877 181.842 98.1619C181.842 96.8267 181.648 95.6193 181.26 94.5398C180.881 93.4508 180.303 92.5843 179.527 91.9403C178.75 91.2964 177.784 90.9744 176.629 90.9744C175.445 90.9744 174.461 91.2964 173.675 91.9403C172.898 92.5843 172.316 93.4508 171.927 94.5398C171.549 95.6193 171.359 96.8267 171.359 98.1619C171.359 99.4877 171.549 100.69 171.927 101.77C172.316 102.849 172.898 103.711 173.675 104.355C174.461 104.99 175.445 105.307 176.629 105.307ZM205.708 117.636C203.862 117.636 202.275 117.385 200.95 116.884C199.624 116.391 198.559 115.728 197.754 114.895C196.949 114.062 196.39 113.138 196.078 112.125L200.708 111.003C200.917 111.429 201.22 111.85 201.617 112.267C202.015 112.693 202.55 113.044 203.222 113.318C203.904 113.602 204.761 113.744 205.793 113.744C207.252 113.744 208.459 113.389 209.416 112.679C210.372 111.978 210.85 110.823 210.85 109.213V105.08H210.595C210.329 105.61 209.941 106.154 209.43 106.713C208.928 107.272 208.26 107.741 207.427 108.119C206.603 108.498 205.566 108.688 204.316 108.688C202.64 108.688 201.12 108.295 199.757 107.509C198.402 106.713 197.323 105.529 196.518 103.957C195.722 102.376 195.325 100.397 195.325 98.0199C195.325 95.6241 195.722 93.6023 196.518 91.9545C197.323 90.2973 198.407 89.0426 199.771 88.1903C201.134 87.3286 202.654 86.8977 204.33 86.8977C205.609 86.8977 206.66 87.1155 207.484 87.5511C208.317 87.9773 208.98 88.4934 209.472 89.0994C209.965 89.696 210.339 90.2595 210.595 90.7898H210.879V87.1818H215.95V109.355C215.95 111.221 215.505 112.764 214.614 113.986C213.724 115.207 212.507 116.121 210.964 116.727C209.42 117.333 207.668 117.636 205.708 117.636ZM205.751 104.653C206.84 104.653 207.768 104.388 208.535 103.858C209.302 103.328 209.884 102.565 210.282 101.571C210.68 100.577 210.879 99.3835 210.879 97.9915C210.879 96.6184 210.68 95.4157 210.282 94.3835C209.894 93.3513 209.316 92.5511 208.549 91.983C207.792 91.4053 206.859 91.1165 205.751 91.1165C204.605 91.1165 203.649 91.4148 202.882 92.0114C202.114 92.608 201.537 93.4271 201.149 94.4688C200.76 95.5009 200.566 96.6752 200.566 97.9915C200.566 99.3267 200.76 100.496 201.149 101.5C201.546 102.494 202.129 103.271 202.896 103.83C203.672 104.379 204.624 104.653 205.751 104.653Z" fill="white"/>
</svg>
